<svg xmlns="http://www.w3.org/2000/svg" viewBox="0 0 188.63 141.1"><defs><style>.cls-1{fill:#fcf2d4;}</style></defs><title>logoLookStyleNegativo</title><g id="Layer_2" data-name="Layer 2"><g id="Layer_1-2" data-name="Layer 1"><path class="cls-1" d="M0,28.14H11.62V70.39H38V81H0Z"/><path class="cls-1" d="M42.78,61v-.15c0-11.62,9.36-21.05,22-21.05s21.8,9.28,21.8,20.9v.15c0,11.62-9.35,21-22,21S42.78,72.58,42.78,61Zm32.44,0v-.15c0-6-4.3-11.17-10.63-11.17-6.57,0-10.49,5.06-10.49,11v.15c0,6,4.3,11.17,10.64,11.17C71.3,72,75.22,66.92,75.22,61Z"/><path class="cls-1" d="M92.88,61v-.15c0-11.62,9.35-21.05,22-21.05s21.8,9.28,21.8,20.9v.15c0,11.62-9.36,21-22,21S92.88,72.58,92.88,61Zm32.44,0v-.15c0-6-4.3-11.17-10.64-11.17-6.56,0-10.48,5.06-10.48,11v.15c0,6,4.3,11.17,10.64,11.17C121.4,72,125.32,66.92,125.32,61Z"/><path class="cls-1" d="M149.47,25.88h11.46V55.23l13.44-14.72H188.1L172.71,56.43,188.63,81H175.5L164.93,64.43l-4,4.23V81H149.47Z"/><path class="cls-1" d="M88.26,4.68A60.76,60.76,0,0,1,140.77,35h5.36A65.37,65.37,0,0,0,30.39,35h5.35A60.76,60.76,0,0,1,88.26,4.68Z"/><path class="cls-1" d="M6.2,127.24l.79-1a18.39,18.39,0,0,0,11.55,4.32c5.47,0,9.61-2.8,9.61-6.75v-.12c0-4.68-5-6-10-7.42-6.21-1.76-10.64-3.34-10.64-8.14V108c0-4.25,4.19-7.72,10.58-7.72a19.11,19.11,0,0,1,10.57,3.41L28,104.74a17.46,17.46,0,0,0-9.84-3.28c-5.54,0-9.25,2.86-9.25,6.44V108c0,4,4.38,5.54,9.67,7,6,1.64,10.94,3.34,10.94,8.57v.12c0,4.74-4.68,8-11,8A19.74,19.74,0,0,1,6.2,127.24Z"/><path class="cls-1" d="M51,123.41V102H46.14v-1.16H51V90.27h1.27v10.52H63.47V102H52.22v21.33c0,4.56,2.19,7.24,6.51,7.24a10.64,10.64,0,0,0,4.62-1.09v1.33a11.06,11.06,0,0,1-4.62,1C53.68,131.74,51,128.7,51,123.41Z"/><path class="cls-1" d="M79.34,139.46l.61-1a11.1,11.1,0,0,0,5.1,1.52c3.53,0,5.48-1.46,8.82-8.75l-14.65-30.4h1.4l13.86,29.06,13.07-29.06h1.34l-14.11,31c-3.52,7.78-5.77,9.3-9.73,9.3A11.74,11.74,0,0,1,79.34,139.46Z"/><path class="cls-1" d="M128.22,86.81h1.28v44.38h-1.28Z"/><path class="cls-1" d="M150,116v-.12c0-9,6.14-15.81,14.59-15.81,9.6,0,14,8.45,14,16v.24H151.38c.25,8.76,6.39,14.35,13.87,14.35a14.19,14.19,0,0,0,11.24-6.14l1,.73a15,15,0,0,1-12.34,6.63C156.86,131.92,150,125.78,150,116Zm27.17-.79c-.24-6.93-4.62-13.92-12.64-13.92-7.54,0-12.83,6-13.14,13.92Z"/></g></g></svg>